<?xml version="1.0" standalone="no"?>
<!DOCTYPE svg PUBLIC "-//W3C//DTD SVG 20010904//EN"
 "http://www.w3.org/TR/2001/REC-SVG-20010904/DTD/svg10.dtd">
<svg version="1.0" xmlns="http://www.w3.org/2000/svg"
 width="1588.000000pt" height="1191.000000pt" viewBox="0 0 1588.000000 1191.000000"
 preserveAspectRatio="xMidYMid meet">

<g transform="translate(0.000000,1191.000000) scale(0.100000,-0.100000)"
fill="#000000" stroke="none">
<path d="M7685 11130 c-180 -11 -384 -28 -535 -45 -333 -36 -545 -62 -568 -69
-10 -3 -57 -10 -107 -16 -49 -6 -112 -15 -140 -20 -27 -6 -93 -17 -145 -26
-176 -30 -356 -64 -510 -98 -36 -7 -99 -21 -140 -30 -41 -8 -91 -20 -110 -26
-19 -5 -89 -23 -155 -39 -66 -16 -176 -46 -245 -66 -69 -20 -141 -41 -160 -47
-61 -17 -364 -118 -385 -128 -11 -5 -51 -21 -90 -35 -38 -14 -79 -29 -90 -34
-11 -6 -69 -31 -130 -57 -278 -119 -590 -304 -781 -466 -107 -90 -259 -249
-306 -320 -76 -114 -136 -254 -153 -358 -5 -25 -11 -108 -14 -185 l-6 -140
-40 3 c-154 10 -387 5 -470 -11 -386 -75 -647 -227 -843 -490 -91 -123 -181
-316 -229 -494 -23 -85 -26 -118 -27 -253 -1 -221 28 -341 139 -571 70 -147
84 -161 315 -306 85 -54 257 -153 264 -153 3 0 29 -14 58 -31 76 -46 361 -191
454 -232 43 -19 99 -44 124 -55 95 -43 241 -101 395 -157 88 -31 170 -61 181
-67 26 -12 30 -35 49 -298 8 -107 24 -316 35 -465 11 -148 27 -360 35 -470 8
-110 17 -222 20 -250 3 -27 12 -140 20 -250 8 -110 21 -294 29 -410 8 -115 18
-234 21 -262 6 -53 20 -232 49 -653 18 -253 27 -291 98 -435 116 -232 246
-427 402 -605 79 -89 241 -239 320 -295 15 -11 47 -34 70 -51 107 -79 310
-198 501 -294 116 -58 224 -110 240 -117 41 -17 167 -66 245 -96 133 -52 414
-140 550 -172 195 -47 246 -58 340 -76 344 -66 507 -87 985 -131 179 -16 1049
-16 1220 0 297 29 568 62 670 82 28 5 111 21 185 35 74 14 151 30 170 35 19 5
85 21 145 36 61 14 130 32 155 39 25 8 79 24 120 36 133 38 385 126 475 164
394 170 607 282 879 463 214 142 358 261 540 446 226 231 392 457 519 711 l51
100 13 165 c7 91 20 248 28 350 8 102 24 300 35 440 11 140 27 347 35 460 8
113 17 225 20 250 6 46 24 278 49 640 8 113 18 230 21 260 6 53 22 253 46 585
9 123 15 164 28 177 9 9 59 31 111 48 52 18 158 57 235 87 149 59 176 70 340
143 130 58 428 211 590 303 306 175 468 351 563 612 29 79 52 193 68 326 15
135 15 155 0 289 -26 224 -68 362 -157 513 -54 93 -197 235 -311 310 -48 31
-90 57 -92 57 -2 0 -30 15 -63 33 -128 72 -258 122 -414 158 -82 20 -125 23
-344 25 l-250 2 -12 65 c-26 145 -66 258 -127 360 -123 208 -338 405 -634 585
-96 57 -382 204 -473 241 -19 8 -56 24 -84 36 -27 12 -77 32 -110 45 -33 13
-73 29 -90 35 -43 18 -406 139 -495 165 -41 12 -96 28 -122 36 -83 25 -468
120 -598 148 -69 15 -141 31 -160 36 -19 4 -98 20 -175 34 -77 14 -160 30
-185 35 -25 6 -124 21 -220 35 -96 14 -202 30 -235 36 -67 11 -277 36 -435 50
-58 6 -150 15 -205 20 -128 14 -724 21 -880 10z m540 -203 c11 -2 56 -10 100
-17 44 -6 94 -15 110 -20 138 -40 271 -86 325 -113 137 -69 180 -199 98 -293
-55 -63 -265 -154 -467 -204 -256 -62 -673 -85 -907 -50 -208 32 -417 80 -505
118 -87 38 -124 118 -99 213 22 85 163 194 342 267 192 77 439 112 763 108
121 -2 229 -6 240 -9z m915 -127 c191 -29 453 -75 595 -104 210 -42 276 -57
480 -106 178 -42 201 -48 280 -70 44 -12 104 -28 134 -35 30 -8 66 -18 80 -24
14 -5 60 -19 101 -31 155 -45 496 -163 595 -205 195 -84 272 -120 401 -186
298 -152 488 -297 631 -484 50 -66 121 -196 150 -275 25 -69 27 -87 27 -220 1
-142 0 -147 -32 -221 -30 -70 -106 -188 -131 -204 -8 -4 -11 24 -11 87 0 112
-24 306 -50 403 -51 192 -123 319 -264 466 -140 145 -294 240 -453 280 -160
40 -178 17 -46 -59 39 -23 75 -42 79 -42 4 0 43 -24 88 -54 161 -108 297 -274
386 -470 84 -184 130 -569 85 -706 -26 -79 -120 -200 -156 -200 -5 0 -9 35 -9
78 -2 261 -84 526 -228 732 -67 97 -234 256 -348 331 -97 65 -125 82 -254 154
-94 52 -452 225 -466 225 -3 0 -24 8 -47 19 -239 107 -762 270 -1097 343 -216
46 -491 95 -593 105 -37 3 -70 10 -73 14 -3 5 7 46 21 92 43 143 29 262 -43
348 -35 41 -31 53 13 45 16 -3 86 -15 155 -26z m-2332 -38 c-50 -53 -72 -90
-91 -149 -23 -72 -21 -128 8 -214 38 -110 42 -102 -60 -116 -461 -63 -803
-131 -1137 -224 -172 -48 -214 -61 -228 -68 -9 -5 -31 -12 -50 -16 -19 -4 -48
-13 -65 -20 -16 -7 -59 -23 -95 -36 -496 -175 -906 -410 -1258 -722 -127 -112
-170 -163 -215 -253 -48 -95 -74 -205 -85 -362 -5 -74 -14 -138 -20 -144 -6
-6 -25 9 -55 46 -43 53 -45 59 -52 138 -14 171 29 372 114 533 39 73 98 168
131 209 115 145 257 283 368 358 41 28 152 89 245 137 94 47 173 92 175 99 6
20 -47 14 -129 -13 -113 -38 -304 -136 -404 -206 -305 -216 -567 -588 -620
-882 -9 -48 -20 -54 -34 -19 -52 127 -47 323 10 461 136 325 403 566 914 824
129 66 281 137 292 137 5 0 87 34 148 61 51 23 285 103 420 143 50 15 101 31
115 36 53 19 314 82 515 125 170 37 516 97 805 139 52 8 127 19 165 25 124 20
200 27 204 18 2 -5 -12 -25 -31 -45z m1963 -550 c-16 -32 -56 -98 -89 -148
-196 -296 -400 -449 -646 -485 -187 -27 -449 21 -645 120 -77 39 -222 180
-270 261 -17 30 -54 91 -81 135 -54 88 -58 100 -32 92 376 -122 653 -162 961
-139 261 20 573 102 751 197 76 40 85 35 51 -33z m284 17 c302 -52 306 -53
510 -98 199 -44 538 -135 600 -160 11 -5 58 -21 105 -36 47 -14 99 -33 117
-41 17 -8 36 -14 43 -14 7 0 26 -6 43 -14 18 -7 59 -23 92 -36 33 -12 74 -29
90 -36 17 -7 95 -40 175 -75 208 -89 508 -243 629 -323 180 -120 302 -257 395
-442 81 -163 119 -311 120 -474 l1 -125 -38 -62 c-74 -122 -228 -229 -467
-327 -36 -15 -74 -31 -85 -36 -11 -6 -51 -21 -90 -35 -38 -14 -79 -30 -90 -34
-87 -39 -477 -164 -622 -200 -21 -5 -101 -26 -178 -46 -344 -88 -880 -186
-1270 -230 -66 -7 -136 -16 -155 -19 -36 -7 -292 -29 -535 -47 -182 -13 -930
-13 -1110 0 -550 41 -862 76 -1225 135 -47 8 -129 21 -184 30 -54 9 -102 18
-106 21 -3 2 -38 9 -76 15 -67 10 -92 16 -289 60 -546 125 -936 260 -1380 478
-129 63 -319 175 -331 193 -11 18 -43 283 -44 357 0 94 24 213 58 281 60 120
358 364 705 576 110 66 368 201 487 253 25 11 65 29 90 39 25 11 72 31 105 44
33 12 64 27 70 31 5 4 15 8 23 8 8 0 28 6 45 14 30 14 300 105 415 140 88 28
437 115 545 137 115 24 194 38 382 68 182 30 175 30 175 -2 0 -20 -9 -26 -57
-41 -61 -18 -64 -19 -158 -61 -158 -71 -344 -228 -390 -328 -51 -111 -42 -203
36 -337 93 -163 237 -268 528 -387 173 -70 338 -118 591 -172 93 -20 331 -51
512 -66 171 -15 203 -15 361 0 208 19 409 56 562 105 372 119 538 199 648 315
61 63 94 118 118 197 51 168 -1 329 -155 483 -81 81 -182 146 -349 225 -116
55 -131 67 -121 95 7 18 45 19 129 4z m-2135 -235 c25 -33 79 -108 122 -165
171 -232 282 -313 529 -385 68 -20 372 -30 444 -16 124 26 141 31 265 85 144
62 377 275 494 450 58 88 74 98 114 78 9 -5 44 -19 77 -31 212 -78 326 -150
409 -259 43 -57 76 -126 76 -161 0 -11 -11 -43 -24 -73 -33 -75 -106 -135
-251 -206 -120 -59 -292 -131 -314 -131 -6 0 -19 -4 -29 -9 -36 -20 -158 -50
-402 -101 -30 -6 -131 -17 -224 -26 -93 -8 -179 -17 -192 -20 -12 -3 -120 2
-240 11 -262 20 -435 49 -691 114 -56 14 -168 52 -273 91 -165 61 -269 120
-354 199 -56 52 -127 166 -133 212 -13 94 76 209 212 273 87 42 90 43 185 81
36 14 79 33 95 40 17 8 37 14 45 12 8 -1 35 -30 60 -63z m6410 -1044 c192 -23
363 -76 561 -175 133 -67 193 -113 265 -207 95 -122 143 -267 170 -509 16
-140 16 -161 0 -314 -19 -192 -36 -243 -110 -341 -71 -93 -264 -235 -506 -372
-19 -11 -64 -36 -100 -57 -36 -21 -85 -49 -110 -62 -25 -14 -59 -34 -75 -44
-145 -87 -541 -280 -725 -354 -36 -15 -78 -32 -95 -39 -16 -7 -77 -30 -135
-50 -58 -21 -121 -44 -140 -51 -124 -47 -242 -86 -247 -82 -8 9 18 358 38 497
26 186 70 356 112 436 14 26 18 27 79 25 57 -2 77 3 160 38 52 23 173 66 269
97 96 31 188 63 206 70 17 8 35 14 41 14 10 0 81 30 187 80 208 97 622 387
676 473 50 80 -29 234 -149 287 -67 30 -259 60 -382 60 -58 0 -154 -7 -215
-14 -60 -8 -143 -18 -184 -22 l-74 -7 7 59 c3 32 13 127 21 209 24 260 27 280
40 301 10 15 34 25 97 37 135 27 202 31 318 17z m-10454 -258 c7 -4 13 -64 16
-162 4 -94 12 -184 23 -228 9 -40 14 -76 10 -80 -9 -9 -231 -9 -455 2 -176 8
-188 7 -241 -13 -90 -34 -129 -92 -129 -191 0 -109 41 -180 159 -274 91 -72
176 -120 306 -172 60 -25 119 -49 130 -54 11 -5 49 -19 85 -33 36 -13 101 -38
145 -55 44 -17 123 -47 175 -67 52 -20 106 -41 120 -47 14 -6 55 -21 92 -33
64 -22 69 -23 124 -8 96 24 162 -2 209 -82 40 -67 91 -222 114 -344 22 -112
47 -437 37 -476 -13 -51 -54 -45 -441 68 -66 20 -160 47 -210 62 -164 48 -417
137 -550 194 -177 77 -367 170 -489 241 -48 27 -89 50 -91 50 -17 0 -240 151
-278 188 -56 54 -108 143 -137 231 -31 93 -60 266 -60 357 0 172 85 407 198
549 167 211 389 331 672 365 52 6 96 13 99 15 7 8 355 5 367 -3z m228 -158
c48 -75 155 -204 238 -286 196 -192 579 -433 928 -582 36 -15 74 -31 85 -36
11 -5 49 -21 85 -35 36 -14 74 -30 85 -35 29 -13 337 -114 425 -140 41 -12 95
-27 120 -34 25 -8 95 -26 155 -40 61 -15 124 -31 140 -36 17 -5 55 -13 85 -19
30 -6 98 -20 150 -31 243 -53 591 -109 890 -145 63 -7 131 -16 150 -19 32 -6
271 -27 520 -46 344 -27 1157 -21 1480 10 58 6 182 17 275 25 382 34 795 95
1135 169 291 64 362 82 710 176 135 37 509 165 585 200 11 5 65 28 120 51 229
95 522 250 705 372 171 114 268 193 403 329 70 71 127 125 127 119 0 -34 -125
-193 -237 -302 -75 -74 -223 -189 -308 -239 -22 -13 -42 -26 -45 -29 -3 -4
-16 -12 -30 -20 -184 -105 -348 -187 -525 -262 -77 -33 -149 -64 -160 -69 -49
-22 -110 -45 -245 -95 -248 -91 -306 -109 -580 -186 -153 -43 -166 -46 -265
-69 -49 -12 -117 -28 -150 -35 -33 -8 -105 -23 -160 -34 -55 -11 -138 -27
-185 -36 -100 -20 -225 -40 -367 -60 -56 -8 -112 -17 -125 -20 -28 -7 -234
-31 -428 -50 -80 -8 -199 -20 -265 -27 -162 -17 -1288 -18 -1465 -1 -69 7
-181 17 -250 23 -69 5 -159 14 -200 20 -41 5 -136 17 -210 25 -234 28 -548 78
-840 134 -100 20 -135 27 -310 66 -90 20 -335 82 -370 94 -14 5 -65 21 -115
36 -49 15 -153 50 -230 77 -139 50 -155 57 -247 97 -26 12 -50 21 -53 21 -17
0 -340 165 -465 238 -304 178 -478 314 -623 487 -58 70 -127 167 -127 180 0 2
-13 27 -30 55 -32 54 -34 60 -22 60 4 0 20 -21 36 -46z m146 -450 c314 -316
588 -503 1015 -694 28 -13 68 -31 90 -40 22 -10 65 -28 95 -40 30 -12 69 -27
85 -34 17 -7 91 -32 165 -55 74 -24 144 -47 155 -52 11 -5 38 -13 60 -18 22
-5 76 -19 120 -31 261 -72 781 -183 1040 -220 44 -7 89 -14 100 -16 148 -31
744 -91 1130 -114 208 -12 904 -12 1110 0 737 44 1393 147 2065 324 178 47
272 73 290 79 8 3 56 17 105 32 50 15 99 30 110 35 11 4 79 27 150 49 72 23
146 48 165 55 19 7 62 23 95 36 165 61 242 94 425 183 287 140 529 307 721
498 55 54 103 99 106 99 17 0 -26 -233 -56 -305 -38 -91 -49 -113 -69 -136
-33 -40 -52 -92 -52 -147 0 -26 -6 -55 -12 -64 -18 -21 -114 -38 -182 -31 -50
5 -60 3 -82 -18 -46 -42 -107 -184 -159 -364 -71 -251 -95 -444 -94 -750 1
-239 6 -283 30 -276 8 2 37 9 64 16 28 7 103 27 167 44 65 17 125 31 134 31
15 0 16 -10 10 -87 -4 -49 -13 -171 -21 -273 -68 -891 -88 -1119 -140 -1650
-33 -336 -80 -711 -134 -1059 -11 -74 -81 -223 -162 -346 -210 -322 -568 -637
-1029 -907 -126 -73 -506 -268 -525 -268 -3 0 -25 -8 -48 -19 -23 -10 -85 -35
-137 -55 -52 -21 -105 -41 -117 -46 -61 -25 -339 -114 -398 -128 -22 -6 -76
-20 -120 -32 -216 -57 -524 -115 -780 -145 -256 -31 -304 -34 -573 -45 -280
-11 -757 -1 -983 20 -263 26 -509 58 -652 85 -169 33 -385 82 -445 101 -23 8
-49 14 -57 14 -8 0 -34 6 -57 14 -24 7 -87 28 -141 45 -804 257 -1464 694
-1819 1206 -141 203 -161 263 -203 618 -8 71 -17 138 -20 150 -3 12 -12 87
-20 167 -8 80 -24 224 -35 320 -22 186 -38 354 -71 700 -11 118 -26 285 -34
370 -8 85 -24 254 -35 375 -41 444 -49 532 -60 629 -5 55 -8 102 -5 104 3 3
26 0 53 -7 151 -40 292 -52 335 -29 30 16 44 34 74 98 32 71 38 159 24 360
-37 511 -81 695 -218 909 -83 127 -206 175 -362 139 -67 -15 -77 -6 -85 83
-10 102 -32 165 -86 249 -68 107 -96 167 -135 285 -37 110 -40 125 -27 125 4
0 72 -66 152 -146z m10306 -47 c5 -4 -5 -19 -21 -33 -60 -49 -282 -194 -375
-242 -123 -65 -372 -172 -399 -172 -20 0 -21 4 -16 53 13 107 58 285 78 303 6
6 37 16 67 23 30 6 100 21 155 32 55 12 132 28 170 35 75 13 328 14 341 1z
m-10534 -173 c9 -3 39 -42 66 -87 43 -73 49 -90 55 -159 4 -45 3 -79 -3 -83
-10 -6 -90 17 -155 45 -22 10 -103 43 -180 73 -189 76 -224 93 -267 135 -38
36 -49 75 -25 86 14 6 483 -3 509 -10z"/>
</g>
</svg>
