<svg width="35" height="35" viewBox="0 0 35 35" fill="none" xmlns="http://www.w3.org/2000/svg">
<path d="M17.3897 30.253C17.1988 30.2541 17.0095 30.2175 16.8328 30.1453C16.6561 30.0731 16.4954 29.9668 16.3599 29.8323L5.09012 18.5481C3.67649 17.1197 2.88354 15.1912 2.88354 13.1816C2.88354 11.1719 3.67649 9.24342 5.09012 7.81501C6.51481 6.39434 8.44469 5.59656 10.4567 5.59656C12.4686 5.59656 14.3985 6.39434 15.8232 7.81501L17.3897 9.38146L18.9561 7.81501C20.3808 6.39434 22.3107 5.59656 24.3226 5.59656C26.3346 5.59656 28.2645 6.39434 29.6892 7.81501C31.1028 9.24342 31.8958 11.1719 31.8958 13.1816C31.8958 15.1912 31.1028 17.1197 29.6892 18.5481L18.4194 29.8323C18.2839 29.9668 18.1232 30.0731 17.9465 30.1453C17.7698 30.2175 17.5805 30.2541 17.3897 30.253Z" fill="#B8585D"/>
</svg>
