<svg width="36" height="36" viewBox="0 0 36 36" fill="none" xmlns="http://www.w3.org/2000/svg">
<path d="M18.0494 31.0389C17.8585 31.04 17.6693 31.0034 17.4926 30.9312C17.3159 30.859 17.1551 30.7527 17.0196 30.6183L5.7499 19.3341C4.33627 17.9057 3.54333 15.9772 3.54333 13.9675C3.54333 11.9579 4.33627 10.0294 5.7499 8.60101C7.17458 7.18035 9.10446 6.38257 11.1164 6.38257C13.1284 6.38257 15.0583 7.18035 16.4829 8.60101L18.0494 10.1675L19.6158 8.60101C21.0405 7.18035 22.9704 6.38257 24.9824 6.38257C26.9943 6.38257 28.9242 7.18035 30.3489 8.60101C31.7625 10.0294 32.5554 11.9579 32.5554 13.9675C32.5554 15.9772 31.7625 17.9057 30.3489 19.3341L19.0792 30.6183C18.9437 30.7527 18.7829 30.859 18.6062 30.9312C18.4295 31.0034 18.2403 31.04 18.0494 31.0389ZM11.1164 9.28271C10.5024 9.27993 9.89399 9.399 9.32634 9.63303C8.75869 9.86706 8.24312 10.2114 7.80948 10.6461C6.93352 11.5267 6.4418 12.7182 6.4418 13.9603C6.4418 15.2023 6.93352 16.3939 7.80948 17.2745L18.0494 27.5289L28.2893 17.2745C29.1653 16.3939 29.657 15.2023 29.657 13.9603C29.657 12.7182 29.1653 11.5267 28.2893 10.6461C27.3954 9.80153 26.2122 9.331 24.9824 9.331C23.7526 9.331 22.5694 9.80153 21.6754 10.6461L19.0792 13.2568C18.9443 13.3928 18.7839 13.5007 18.6072 13.5743C18.4304 13.648 18.2409 13.6859 18.0494 13.6859C17.8579 13.6859 17.6683 13.648 17.4916 13.5743C17.3148 13.5007 17.1544 13.3928 17.0196 13.2568L14.4234 10.6461C13.9897 10.2114 13.4742 9.86706 12.9065 9.63303C12.3389 9.399 11.7304 9.27993 11.1164 9.28271Z" fill="#B8585D"/>
</svg>
