<svg width="32" height="33" viewBox="0 0 32 33" fill="none" xmlns="http://www.w3.org/2000/svg">
<path d="M16.2512 23.0535C16.0804 23.0545 15.9111 23.0217 15.753 22.9571C15.5949 22.8926 15.4511 22.7974 15.3298 22.6771L5.24639 12.5807C3.98157 11.3027 3.27209 9.57721 3.27209 7.7791C3.27209 5.981 3.98157 4.25552 5.24639 2.97748C6.52111 1.70636 8.24784 0.992554 10.048 0.992554C11.8482 0.992554 13.5749 1.70636 14.8496 2.97748L16.2512 4.37903L17.6528 2.97748C18.9275 1.70636 20.6542 0.992554 22.4544 0.992554C24.2546 0.992554 25.9813 1.70636 27.256 2.97748C28.5208 4.25552 29.2303 5.981 29.2303 7.7791C29.2303 9.57721 28.5208 11.3027 27.256 12.5807L17.1726 22.6771C17.0513 22.7974 16.9075 22.8926 16.7494 22.9571C16.5913 23.0217 16.422 23.0545 16.2512 23.0535Z" fill="#B8585D"/>
</svg>
