<?xml version="1.0" standalone="no"?>
<!DOCTYPE svg PUBLIC "-//W3C//DTD SVG 20010904//EN"
 "http://www.w3.org/TR/2001/REC-SVG-20010904/DTD/svg10.dtd">
<svg version="1.0" xmlns="http://www.w3.org/2000/svg"
 width="801.000000pt" height="800.000000pt" viewBox="0 0 801.000000 800.000000"
 preserveAspectRatio="xMidYMid meet">

<g transform="translate(0.000000,800.000000) scale(0.100000,-0.100000)"
fill="#000000" stroke="none">
<path d="M3110 6759 c-368 -42 -753 -200 -1065 -438 -84 -64 -266 -242 -338
-331 -252 -312 -416 -700 -467 -1100 -16 -128 -13 -421 5 -547 37 -250 100
-453 210 -673 325 -652 965 -1089 1700 -1161 214 -21 535 1 726 51 157 40 357
118 498 193 l84 45 757 -737 c803 -781 805 -783 934 -817 65 -18 187 -18 252
0 86 23 170 74 234 143 99 106 140 209 140 354 0 106 -24 191 -78 275 -27 41
-260 274 -779 778 l-741 718 34 59 c188 321 298 769 280 1144 -19 395 -132
759 -332 1072 -345 537 -895 885 -1527 968 -127 16 -399 18 -527 4z m505 -871
c443 -86 814 -415 959 -848 47 -140 66 -258 66 -405 0 -462 -246 -880 -653
-1113 -194 -111 -390 -162 -617 -163 -342 0 -641 118 -884 351 -234 224 -365
492 -396 811 -46 468 176 921 583 1189 274 181 607 244 942 178z"/>
</g>
</svg>
