<svg width="32" height="32" viewBox="0 0 32 32" fill="none" xmlns="http://www.w3.org/2000/svg">
<path d="M16.1782 3.01904C13.581 3.01904 11.0421 3.78921 8.88253 5.23216C6.723 6.67511 5.03986 8.72603 4.04594 11.1256C3.05202 13.5251 2.79196 16.1655 3.29866 18.7128C3.80535 21.2602 5.05604 23.6 6.89257 25.4366C8.7291 27.2731 11.069 28.5238 13.6163 29.0305C16.1636 29.5372 18.804 29.2771 21.2036 28.2832C23.6031 27.2893 25.654 25.6061 27.097 23.4466C28.5399 21.2871 29.3101 18.7482 29.3101 16.1509C29.3101 14.4264 28.9704 12.7188 28.3105 11.1256C27.6506 9.53234 26.6833 8.08469 25.4639 6.86528C24.2445 5.64587 22.7968 4.67859 21.2036 4.01865C19.6103 3.35871 17.9027 3.01904 16.1782 3.01904ZM19.737 17.8449C19.86 17.967 19.9577 18.1123 20.0244 18.2723C20.0911 18.4323 20.1254 18.6039 20.1254 18.7773C20.1254 18.9507 20.0911 19.1223 20.0244 19.2823C19.9577 19.4424 19.86 19.5876 19.737 19.7097C19.6149 19.8328 19.4696 19.9304 19.3096 19.9971C19.1496 20.0638 18.9779 20.0981 18.8046 20.0981C18.6312 20.0981 18.4596 20.0638 18.2996 19.9971C18.1395 19.9304 17.9943 19.8328 17.8722 19.7097L16.1782 18.0025L14.4842 19.7097C14.3621 19.8328 14.2169 19.9304 14.0569 19.9971C13.8968 20.0638 13.7252 20.0981 13.5518 20.0981C13.3785 20.0981 13.2068 20.0638 13.0468 19.9971C12.8868 19.9304 12.7416 19.8328 12.6195 19.7097C12.4964 19.5876 12.3987 19.4424 12.332 19.2823C12.2654 19.1223 12.231 18.9507 12.231 18.7773C12.231 18.6039 12.2654 18.4323 12.332 18.2723C12.3987 18.1123 12.4964 17.967 12.6195 17.8449L14.3266 16.1509L12.6195 14.4569C12.3722 14.2096 12.2333 13.8743 12.2333 13.5246C12.2333 13.1748 12.3722 12.8395 12.6195 12.5922C12.8668 12.3449 13.2021 12.206 13.5518 12.206C13.9015 12.206 14.2369 12.3449 14.4842 12.5922L16.1782 14.2993L17.8722 12.5922C18.1195 12.3449 18.4549 12.206 18.8046 12.206C19.1543 12.206 19.4897 12.3449 19.737 12.5922C19.9842 12.8395 20.1232 13.1748 20.1232 13.5246C20.1232 13.8743 19.9842 14.2096 19.737 14.4569L18.0298 16.1509L19.737 17.8449Z" fill="#CA363E"/>
</svg>
