<svg width="32" height="32" viewBox="0 0 32 32" fill="none" xmlns="http://www.w3.org/2000/svg">
<path d="M16.2348 2.93506C13.6376 2.93506 11.0986 3.70523 8.93911 5.14818C6.77958 6.59113 5.09644 8.64205 4.10252 11.0416C3.1086 13.4411 2.84854 16.0815 3.35524 18.6288C3.86193 21.1762 5.11262 23.5161 6.94915 25.3526C8.78568 27.1891 11.1256 28.4398 13.6729 28.9465C16.2202 29.4532 18.8606 29.1931 21.2602 28.1992C23.6597 27.2053 25.7106 25.5222 27.1536 23.3626C28.5965 21.2031 29.3667 18.6642 29.3667 16.0669C29.3667 14.3424 29.027 12.6348 28.3671 11.0416C27.7071 9.44835 26.7398 8.00071 25.5204 6.7813C24.301 5.56189 22.8534 4.5946 21.2602 3.93466C19.6669 3.27472 17.9593 2.93506 16.2348 2.93506ZM21.8815 12.9284L15.8802 20.8076C15.7579 20.9665 15.6008 21.0953 15.421 21.184C15.2411 21.2728 15.0434 21.3192 14.8428 21.3197C14.6434 21.3208 14.4463 21.2764 14.2665 21.1899C14.0868 21.1035 13.9291 20.9772 13.8054 20.8207L10.6012 16.7367C10.4952 16.6004 10.417 16.4446 10.3711 16.2782C10.3253 16.1117 10.3127 15.9379 10.334 15.7666C10.3553 15.5952 10.4102 15.4298 10.4955 15.2797C10.5808 15.1295 10.6948 14.9977 10.831 14.8916C11.1062 14.6774 11.4551 14.5813 11.8011 14.6244C11.9725 14.6458 12.1379 14.7006 12.288 14.7859C12.4381 14.8712 12.57 14.9852 12.6761 15.1214L14.8166 17.8529L19.7804 11.2869C19.8856 11.149 20.0169 11.0331 20.1669 10.9459C20.3169 10.8587 20.4826 10.8019 20.6545 10.7787C20.8265 10.7555 21.0013 10.7665 21.169 10.8109C21.3367 10.8552 21.494 10.9322 21.632 11.0374C21.77 11.1426 21.8858 11.274 21.9731 11.4239C22.0603 11.5739 22.1171 11.7396 22.1402 11.9116C22.1634 12.0835 22.1525 12.2583 22.1081 12.426C22.0637 12.5937 21.9867 12.7511 21.8815 12.889V12.9284Z" fill="#68A357"/>
</svg>
