<svg width="32" height="32" viewBox="0 0 32 32" fill="none" xmlns="http://www.w3.org/2000/svg">
<path d="M15.7582 2.62646C13.161 2.62646 10.6221 3.39664 8.46255 4.83959C6.30302 6.28254 4.61988 8.33346 3.62595 10.733C2.63203 13.1325 2.37198 15.7729 2.87867 18.3203C3.38537 20.8676 4.63606 23.2075 6.47259 25.044C8.30912 26.8805 10.649 28.1312 13.1963 28.6379C15.7437 29.1446 18.3841 28.8846 20.7836 27.8906C23.1831 26.8967 25.234 25.2136 26.677 23.054C28.1199 20.8945 28.8901 18.3556 28.8901 15.7583C28.8901 14.0338 28.5505 12.3262 27.8905 10.733C27.2306 9.13976 26.2633 7.69211 25.0439 6.4727C23.8245 5.2533 22.3768 4.28601 20.7836 3.62607C19.1904 2.96613 17.4827 2.62646 15.7582 2.62646ZM19.317 17.4524C19.4401 17.5744 19.5378 17.7197 19.6044 17.8797C19.6711 18.0397 19.7054 18.2114 19.7054 18.3847C19.7054 18.5581 19.6711 18.7297 19.6044 18.8897C19.5378 19.0498 19.4401 19.195 19.317 19.3171C19.1949 19.4402 19.0497 19.5379 18.8896 19.6045C18.7296 19.6712 18.558 19.7055 18.3846 19.7055C18.2113 19.7055 18.0396 19.6712 17.8796 19.6045C17.7196 19.5379 17.5743 19.4402 17.4522 19.3171L15.7582 17.6099L14.0642 19.3171C13.9421 19.4402 13.7969 19.5379 13.6369 19.6045C13.4769 19.6712 13.3052 19.7055 13.1319 19.7055C12.9585 19.7055 12.7869 19.6712 12.6268 19.6045C12.4668 19.5379 12.3216 19.4402 12.1995 19.3171C12.0764 19.195 11.9787 19.0498 11.912 18.8897C11.8454 18.7297 11.8111 18.5581 11.8111 18.3847C11.8111 18.2114 11.8454 18.0397 11.912 17.8797C11.9787 17.7197 12.0764 17.5744 12.1995 17.4524L13.9066 15.7583L12.1995 14.0643C11.9522 13.8171 11.8133 13.4817 11.8133 13.132C11.8133 12.7823 11.9522 12.4469 12.1995 12.1996C12.4468 11.9523 12.7822 11.8134 13.1319 11.8134C13.4816 11.8134 13.8169 11.9523 14.0642 12.1996L15.7582 13.9068L17.4522 12.1996C17.6995 11.9523 18.0349 11.8134 18.3846 11.8134C18.7343 11.8134 19.0697 11.9523 19.317 12.1996C19.5643 12.4469 19.7032 12.7823 19.7032 13.132C19.7032 13.4817 19.5643 13.8171 19.317 14.0643L17.6098 15.7583L19.317 17.4524Z" fill="#AA7A00"/>
</svg>
