<svg width="16" height="16" viewBox="0 0 32 32" fill="none" xmlns="http://www.w3.org/2000/svg">
<path d="M15.8981 4C13.3385 4 10.8364 4.77017 8.70817 6.21312C6.57994 7.65607 4.92118 9.70699 3.94167 12.1065C2.96215 14.5061 2.70586 17.1465 3.20522 19.6938C3.70457 22.2411 4.93714 24.581 6.74705 26.4175C8.55696 28.2541 10.8629 29.5047 13.3733 30.0114C15.8838 30.5181 18.4859 30.2581 20.8506 29.2642C23.2154 28.2702 25.2366 26.5871 26.6586 24.4276C28.0807 22.268 28.8397 19.7291 28.8397 17.1319C28.8397 15.4074 28.5049 13.6998 27.8546 12.1065C27.2042 10.5133 26.2509 9.06565 25.0492 7.84624C23.8475 6.62683 22.4208 5.65954 20.8506 4.99961C19.2805 4.33967 17.5976 4 15.8981 4ZM19.4053 18.8259C19.5266 18.948 19.6229 19.0932 19.6886 19.2532C19.7543 19.4133 19.7881 19.5849 19.7881 19.7583C19.7881 19.9316 19.7543 20.1033 19.6886 20.2633C19.6229 20.4233 19.5266 20.5685 19.4053 20.6906C19.285 20.8137 19.1418 20.9114 18.9841 20.9781C18.8264 21.0447 18.6573 21.0791 18.4864 21.0791C18.3156 21.0791 18.1464 21.0447 17.9887 20.9781C17.831 20.9114 17.6879 20.8137 17.5676 20.6906L15.8981 18.9835L14.2287 20.6906C14.1083 20.8137 13.9652 20.9114 13.8075 20.9781C13.6498 21.0447 13.4806 21.0791 13.3098 21.0791C13.139 21.0791 12.9698 21.0447 12.8121 20.9781C12.6544 20.9114 12.5113 20.8137 12.391 20.6906C12.2697 20.5685 12.1734 20.4233 12.1077 20.2633C12.042 20.1033 12.0081 19.9316 12.0081 19.7583C12.0081 19.5849 12.042 19.4133 12.1077 19.2532C12.1734 19.0932 12.2697 18.948 12.391 18.8259L14.0734 17.1319L12.391 15.4379C12.1473 15.1906 12.0104 14.8552 12.0104 14.5055C12.0104 14.1558 12.1473 13.8204 12.391 13.5731C12.6346 13.3259 12.9652 13.1869 13.3098 13.1869C13.6544 13.1869 13.985 13.3259 14.2287 13.5731L15.8981 15.2803L17.5676 13.5731C17.8113 13.3259 18.1418 13.1869 18.4864 13.1869C18.8311 13.1869 19.1616 13.3259 19.4053 13.5731C19.649 13.8204 19.7859 14.1558 19.7859 14.5055C19.7859 14.8552 19.649 15.1906 19.4053 15.4379L17.7229 17.1319L19.4053 18.8259Z" fill="#CA363E"/>
</svg>
